<svg width="24" height="24" viewBox="0 0 265 265" fill="none" xmlns="http://www.w3.org/2000/svg">
<path fill-rule="evenodd" clip-rule="evenodd" d="M132.075 264.15C205.018 264.15 264.15 205.018 264.15 132.075C264.15 59.132 205.018 0 132.075 0C59.1321 0 0 59.132 0 132.075C0 205.018 59.1321 264.15 132.075 264.15ZM126.121 46.9883H139.263V63.8171C160.386 66.8186 176.919 84.0677 178.831 105.521H165.69C163.642 89.1213 149.654 76.4281 132.696 76.4281C114.324 76.4281 99.4309 91.3214 99.4309 109.693C99.4309 128.064 114.324 142.957 132.696 142.957V156.031C107.106 156.031 86.3569 135.291 86.3569 109.693C86.3569 86.3251 103.648 67.0052 126.121 63.8159V46.9883ZM132.603 122.758C150.97 122.763 165.859 137.654 165.859 156.023C165.859 174.394 150.966 189.288 132.594 189.288C115.636 189.288 101.648 176.594 99.6003 160.195H86.4586C88.374 181.68 104.953 198.948 126.121 201.912V217.162H139.263V201.886C161.698 198.656 178.941 179.351 178.941 156.023C178.941 130.433 158.192 109.684 132.603 109.684V122.758Z" fill="url(#paint0_linear_1938_360)"/>
<defs>
<linearGradient id="paint0_linear_1938_360" x1="132.075" y1="0" x2="132.075" y2="264.15" gradientUnits="userSpaceOnUse">
<stop stop-color="#549CFF"/>
<stop offset="1" stop-color="#10408D"/>
</linearGradient>
</defs>
</svg>
